<svg width="18" height="14" viewBox="0 0 18 14" fill="none" xmlns="http://www.w3.org/2000/svg">
<path d="M16.7778 0.333344H1.2222C0.92751 0.333344 0.644895 0.450407 0.436521 0.65878C0.228147 0.867154 0.111084 1.14977 0.111084 1.44445V12.5556C0.111084 12.8502 0.228147 13.1329 0.436521 13.3412C0.644895 13.5496 0.92751 13.6667 1.2222 13.6667H16.7778C17.0724 13.6667 17.3551 13.5496 17.5634 13.3412C17.7718 13.1329 17.8889 12.8502 17.8889 12.5556V1.44445C17.8889 1.14977 17.7718 0.867154 17.5634 0.65878C17.3551 0.450407 17.0724 0.333344 16.7778 0.333344V0.333344ZM16.7778 10.3333H1.2222V8.11112H16.7778V10.3333Z" fill="black"/>
</svg>
