<svg width="18" height="20" viewBox="0 0 18 20" fill="none" xmlns="http://www.w3.org/2000/svg">
<path d="M7.125 0C6.62772 0 6.15081 0.197544 5.79917 0.549175C5.44754 0.900805 5.25 1.37772 5.25 1.875V3.125C5.25 3.62228 5.44754 4.09919 5.79917 4.45083C6.15081 4.80246 6.62772 5 7.125 5H10.875C11.3723 5 11.8492 4.80246 12.2008 4.45083C12.5525 4.09919 12.75 3.62228 12.75 3.125V1.875C12.75 1.37772 12.5525 0.900805 12.2008 0.549175C11.8492 0.197544 11.3723 0 10.875 0L7.125 0ZM10.875 1.25C11.0408 1.25 11.1997 1.31585 11.3169 1.43306C11.4342 1.55027 11.5 1.70924 11.5 1.875V3.125C11.5 3.29076 11.4342 3.44973 11.3169 3.56694C11.1997 3.68415 11.0408 3.75 10.875 3.75H7.125C6.95924 3.75 6.80027 3.68415 6.68306 3.56694C6.56585 3.44973 6.5 3.29076 6.5 3.125V1.875C6.5 1.70924 6.56585 1.55027 6.68306 1.43306C6.80027 1.31585 6.95924 1.25 7.125 1.25H10.875Z" fill="white"/>
<path d="M4 1.875H2.75C2.08696 1.875 1.45107 2.13839 0.982233 2.60723C0.513392 3.07607 0.25 3.71196 0.25 4.375V17.5C0.25 18.163 0.513392 18.7989 0.982233 19.2678C1.45107 19.7366 2.08696 20 2.75 20H15.25C15.913 20 16.5489 19.7366 17.0178 19.2678C17.4866 18.7989 17.75 18.163 17.75 17.5V4.375C17.75 3.71196 17.4866 3.07607 17.0178 2.60723C16.5489 2.13839 15.913 1.875 15.25 1.875H14V3.125C14 3.53538 13.9192 3.94174 13.7621 4.32089C13.6051 4.70003 13.3749 5.04453 13.0847 5.33471C12.7945 5.62489 12.45 5.85508 12.0709 6.01212C11.6917 6.16917 11.2854 6.25 10.875 6.25H7.125C6.2962 6.25 5.50134 5.92076 4.91529 5.33471C4.32924 4.74866 4 3.9538 4 3.125V1.875ZM12.5675 11.0675L8.8175 14.8175C8.75944 14.8757 8.69047 14.9219 8.61454 14.9534C8.53861 14.9849 8.45721 15.0011 8.375 15.0011C8.29279 15.0011 8.21139 14.9849 8.13546 14.9534C8.05953 14.9219 7.99056 14.8757 7.9325 14.8175L6.0575 12.9425C5.94014 12.8251 5.87421 12.666 5.87421 12.5C5.87421 12.334 5.94014 12.1749 6.0575 12.0575C6.17486 11.9401 6.33403 11.8742 6.5 11.8742C6.66597 11.8742 6.82514 11.9401 6.9425 12.0575L8.375 13.4913L11.6825 10.1825C11.7999 10.0651 11.959 9.99921 12.125 9.99921C12.291 9.99921 12.4501 10.0651 12.5675 10.1825C12.6849 10.2999 12.7508 10.459 12.7508 10.625C12.7508 10.791 12.6849 10.9501 12.5675 11.0675Z" fill="white"/>
</svg>
