<svg width="20" height="20" viewBox="0 0 20 20" fill="none" xmlns="http://www.w3.org/2000/svg">
<path d="M11.6667 10.8333C12.3612 10.8333 12.9514 10.5903 13.4375 10.1042C13.9237 9.61805 14.1667 9.02778 14.1667 8.33333C14.1667 7.63889 13.9237 7.04861 13.4375 6.5625C12.9514 6.07639 12.3612 5.83333 11.6667 5.83333C10.9723 5.83333 10.382 6.07639 9.89587 6.5625C9.40976 7.04861 9.16671 7.63889 9.16671 8.33333C9.16671 9.02778 9.40976 9.61805 9.89587 10.1042C10.382 10.5903 10.9723 10.8333 11.6667 10.8333ZM5.83337 13.3333C5.37504 13.3333 4.98282 13.17 4.65671 12.8433C4.33004 12.5172 4.16671 12.125 4.16671 11.6667V5C4.16671 4.54167 4.33004 4.14944 4.65671 3.82333C4.98282 3.49667 5.37504 3.33333 5.83337 3.33333H17.5C17.9584 3.33333 18.3509 3.49667 18.6775 3.82333C19.0037 4.14944 19.1667 4.54167 19.1667 5V11.6667C19.1667 12.125 19.0037 12.5172 18.6775 12.8433C18.3509 13.17 17.9584 13.3333 17.5 13.3333H5.83337ZM2.50004 16.6667C2.04171 16.6667 1.64949 16.5036 1.32337 16.1775C0.996707 15.8508 0.833374 15.4583 0.833374 15V6.66667C0.833374 6.43055 0.913374 6.2325 1.07337 6.0725C1.23282 5.91305 1.4306 5.83333 1.66671 5.83333C1.90282 5.83333 2.10087 5.91305 2.26087 6.0725C2.42032 6.2325 2.50004 6.43055 2.50004 6.66667V15H15.8334C16.0695 15 16.2673 15.08 16.4267 15.24C16.5867 15.3994 16.6667 15.5972 16.6667 15.8333C16.6667 16.0694 16.5867 16.2672 16.4267 16.4267C16.2673 16.5867 16.0695 16.6667 15.8334 16.6667H2.50004ZM5.83337 6.66667C6.29171 6.66667 6.68393 6.50333 7.01004 6.17667C7.33671 5.85055 7.50004 5.45833 7.50004 5H5.83337V6.66667ZM17.5 6.66667V5H15.8334C15.8334 5.45833 15.9964 5.85055 16.3225 6.17667C16.6492 6.50333 17.0417 6.66667 17.5 6.66667ZM5.83337 11.6667H7.50004C7.50004 11.2083 7.33671 10.8158 7.01004 10.4892C6.68393 10.1631 6.29171 10 5.83337 10V11.6667ZM15.8334 11.6667H17.5V10C17.0417 10 16.6492 10.1631 16.3225 10.4892C15.9964 10.8158 15.8334 11.2083 15.8334 11.6667Z" fill="white"/>
</svg>
