<svg width="17" height="18" viewBox="0 0 17 18" fill="none" xmlns="http://www.w3.org/2000/svg">
<path d="M3.33334 14H5.00001V15.6667H15V2.33332H5.00001V3.99999H3.33334V1.49999C3.33334 1.27898 3.42114 1.06701 3.57742 0.910734C3.7337 0.754454 3.94566 0.666656 4.16668 0.666656H15.8333C16.0544 0.666656 16.2663 0.754454 16.4226 0.910734C16.5789 1.06701 16.6667 1.27898 16.6667 1.49999V16.5C16.6667 16.721 16.5789 16.933 16.4226 17.0892C16.2663 17.2455 16.0544 17.3333 15.8333 17.3333H4.16668C3.94566 17.3333 3.7337 17.2455 3.57742 17.0892C3.42114 16.933 3.33334 16.721 3.33334 16.5V14ZM5.00001 8.16666H10.8333V9.83332H5.00001V12.3333L0.833344 8.99999L5.00001 5.66666V8.16666Z" fill="black"/>
</svg>
