<svg width="15" height="18" viewBox="0 0 15 18" fill="none" xmlns="http://www.w3.org/2000/svg">
<path d="M0.333374 2.75C0.333374 2.19746 0.552867 1.66756 0.943568 1.27686C1.33427 0.886158 1.86417 0.666664 2.41671 0.666664H12C12.2736 0.666664 12.5445 0.720551 12.7973 0.825248C13.0501 0.929946 13.2797 1.0834 13.4732 1.27686C13.6666 1.47031 13.8201 1.69998 13.9248 1.95274C14.0295 2.2055 14.0834 2.47641 14.0834 2.75V14.625C14.0834 14.7908 14.0175 14.9497 13.9003 15.0669C13.7831 15.1841 13.6241 15.25 13.4584 15.25H1.58337C1.58337 15.471 1.67117 15.683 1.82745 15.8393C1.98373 15.9955 2.19569 16.0833 2.41671 16.0833H13.4584C13.6241 16.0833 13.7831 16.1492 13.9003 16.2664C14.0175 16.3836 14.0834 16.5426 14.0834 16.7083C14.0834 16.8741 14.0175 17.0331 13.9003 17.1503C13.7831 17.2675 13.6241 17.3333 13.4584 17.3333H2.41671C1.86417 17.3333 1.33427 17.1138 0.943568 16.7231C0.552867 16.3324 0.333374 15.8025 0.333374 15.25V2.75ZM7.20837 5.66666C7.42939 5.66666 7.64135 5.57887 7.79763 5.42259C7.95391 5.26631 8.04171 5.05434 8.04171 4.83333C8.04171 4.61232 7.95391 4.40036 7.79763 4.24408C7.64135 4.0878 7.42939 4 7.20837 4C6.98736 4 6.7754 4.0878 6.61912 4.24408C6.46284 4.40036 6.37504 4.61232 6.37504 4.83333C6.37504 5.05434 6.46284 5.26631 6.61912 5.42259C6.7754 5.57887 6.98736 5.66666 7.20837 5.66666ZM6.58337 7.125V11.2917C6.58337 11.4574 6.64922 11.6164 6.76643 11.7336C6.88364 11.8508 7.04261 11.9167 7.20837 11.9167C7.37413 11.9167 7.5331 11.8508 7.65032 11.7336C7.76753 11.6164 7.83337 11.4574 7.83337 11.2917V7.125C7.83337 6.95924 7.76753 6.80027 7.65032 6.68306C7.5331 6.56585 7.37413 6.5 7.20837 6.5C7.04261 6.5 6.88364 6.56585 6.76643 6.68306C6.64922 6.80027 6.58337 6.95924 6.58337 7.125Z" fill="black"/>
</svg>
