<svg width="16" height="19" viewBox="0 0 16 19" fill="none" xmlns="http://www.w3.org/2000/svg">
<path d="M7.00001 11.6667V13.3333C5.67393 13.3333 4.40216 13.8601 3.46448 14.7978C2.52679 15.7355 2.00001 17.0073 2.00001 18.3333H0.333344C0.333344 16.5652 1.03572 14.8695 2.28596 13.6193C3.53621 12.3691 5.2319 11.6667 7.00001 11.6667ZM7.00001 10.8333C4.23751 10.8333 2.00001 8.59584 2.00001 5.83334C2.00001 3.07084 4.23751 0.833344 7.00001 0.833344C9.76251 0.833344 12 3.07084 12 5.83334C12 8.59584 9.76251 10.8333 7.00001 10.8333ZM7.00001 9.16668C8.84168 9.16668 10.3333 7.67501 10.3333 5.83334C10.3333 3.99168 8.84168 2.50001 7.00001 2.50001C5.15834 2.50001 3.66668 3.99168 3.66668 5.83334C3.66668 7.67501 5.15834 9.16668 7.00001 9.16668ZM9.16251 15.6767C9.05685 15.232 9.05685 14.7688 9.16251 14.3242L8.33584 13.8467L9.16918 12.4033L9.99584 12.8808C10.3276 12.5666 10.7287 12.3348 11.1667 12.2042V11.25H12.8333V12.2042C13.2767 12.3358 13.6767 12.5708 14.0042 12.8808L14.8308 12.4033L15.6642 13.8467L14.8375 14.3242C14.943 14.7686 14.943 15.2315 14.8375 15.6758L15.6642 16.1533L14.8308 17.5967L14.0042 17.1192C13.6724 17.4334 13.2713 17.6652 12.8333 17.7958V18.75H11.1667V17.7958C10.7287 17.6652 10.3276 17.4334 9.99584 17.1192L9.16918 17.5967L8.33584 16.1533L9.16251 15.6767ZM12 16.25C12.3315 16.25 12.6495 16.1183 12.8839 15.8839C13.1183 15.6495 13.25 15.3315 13.25 15C13.25 14.6685 13.1183 14.3505 12.8839 14.1161C12.6495 13.8817 12.3315 13.75 12 13.75C11.6685 13.75 11.3505 13.8817 11.1161 14.1161C10.8817 14.3505 10.75 14.6685 10.75 15C10.75 15.3315 10.8817 15.6495 11.1161 15.8839C11.3505 16.1183 11.6685 16.25 12 16.25Z" fill="black"/>
</svg>
