<svg width="20" height="20" viewBox="0 0 20 20" fill="none" xmlns="http://www.w3.org/2000/svg">
<path d="M4.445 3.78753C5.30061 3.0211 6.30557 2.44003 7.39667 2.08086C7.70865 2.47172 8.10472 2.78722 8.55543 3.00392C9.00614 3.22062 9.4999 3.33294 10 3.33253C10.5001 3.33294 10.9939 3.22062 11.4446 3.00392C11.8953 2.78722 12.2914 2.47172 12.6033 2.08086C13.6944 2.44003 14.6994 3.0211 15.555 3.78753C15.3729 4.25291 15.298 4.75331 15.3358 5.25161C15.3736 5.7499 15.5231 6.23328 15.7733 6.66586C16.023 7.09927 16.3672 7.47082 16.7802 7.75288C17.1933 8.03494 17.6646 8.22025 18.1592 8.29503C18.393 9.41912 18.393 10.5793 18.1592 11.7034C17.1925 11.8517 16.3008 12.42 15.7733 13.3325C15.523 13.7652 15.3734 14.2487 15.3356 14.7472C15.2978 15.2456 15.3728 15.7462 15.555 16.2117C14.6993 16.9778 13.6944 17.5586 12.6033 17.9175C12.2913 17.5268 11.8952 17.2115 11.4445 16.9949C10.9937 16.7784 10.5 16.6662 10 16.6667C9.4999 16.6663 9.00614 16.7786 8.55543 16.9953C8.10472 17.212 7.70865 17.5275 7.39667 17.9184C6.30564 17.5595 5.30068 16.9787 4.445 16.2125C4.62721 15.747 4.7022 15.2465 4.6644 14.748C4.6266 14.2496 4.47699 13.7661 4.22667 13.3334C3.97691 12.9001 3.63271 12.5287 3.21965 12.2468C2.8066 11.9649 2.33531 11.7797 1.84083 11.705C1.60693 10.5807 1.60693 9.42022 1.84083 8.29587C2.33539 8.22108 2.80672 8.03577 3.21978 7.75372C3.63284 7.47166 3.977 7.10011 4.22667 6.6667C4.47686 6.23411 4.6264 5.75073 4.6642 5.25244C4.702 4.75415 4.62708 4.25374 4.445 3.78836V3.78753ZM11.25 12.1642C11.5366 12.0012 11.7882 11.7832 11.9902 11.5226C12.1922 11.2621 12.3406 10.9641 12.427 10.6459C12.5134 10.3277 12.536 9.99562 12.4935 9.66867C12.451 9.34172 12.3443 9.02641 12.1794 8.74088C12.0146 8.45535 11.7949 8.20525 11.5329 8.00498C11.271 7.80471 10.9721 7.65822 10.6534 7.57395C10.3346 7.48968 10.0023 7.46929 9.67569 7.51395C9.34903 7.55862 9.03443 7.66745 8.75 7.8342C8.18048 8.16808 7.76615 8.71366 7.59741 9.3519C7.42867 9.99014 7.51922 10.6692 7.84931 11.2409C8.17941 11.8127 8.72223 12.2306 9.35934 12.4036C9.99645 12.5765 10.6761 12.4905 11.25 12.1642Z" fill="black"/>
</svg>
