<svg width="20" height="20" viewBox="0 0 20 20" fill="none" xmlns="http://www.w3.org/2000/svg">
<mask id="mask0_65_978" style="mask-type:alpha" maskUnits="userSpaceOnUse" x="1" y="0" width="18" height="20">
<path d="M9.99996 8.33333C11.8409 8.33333 13.3333 6.84095 13.3333 5C13.3333 3.15905 11.8409 1.66666 9.99996 1.66666C8.15901 1.66666 6.66663 3.15905 6.66663 5C6.66663 6.84095 8.15901 8.33333 9.99996 8.33333Z" fill="white" stroke="white" stroke-width="2" stroke-linecap="round" stroke-linejoin="round"/>
<path d="M17.5 18.3333C17.5 14.1912 14.1421 10.8333 10 10.8333C5.85792 10.8333 2.5 14.1912 2.5 18.3333" stroke="white" stroke-width="2" stroke-linecap="round" stroke-linejoin="round"/>
<path d="M10 18.3333L11.6667 16.25L10 10.8333L8.33337 16.25L10 18.3333Z" fill="white" stroke="white" stroke-width="2" stroke-linecap="round" stroke-linejoin="round"/>
</mask>
<g mask="url(#mask0_65_978)">
<path d="M0 0H20V20H0V0Z" fill="black"/>
</g>
</svg>
