<svg width="20" height="18" viewBox="0 0 20 18" fill="none" xmlns="http://www.w3.org/2000/svg">
<path d="M7.32812 1.78125H12.6719C12.8352 1.78125 12.9688 1.91484 12.9688 2.07812V3.5625H7.03125V2.07812C7.03125 1.91484 7.16484 1.78125 7.32812 1.78125ZM5.25 2.07812V3.5625H2.875C1.56504 3.5625 0.5 4.62754 0.5 5.9375V9.5H19.5V5.9375C19.5 4.62754 18.435 3.5625 17.125 3.5625H14.75V2.07812C14.75 0.931445 13.8186 0 12.6719 0H7.32812C6.18145 0 5.25 0.931445 5.25 2.07812ZM19.5 10.6875H12.375V11.875C12.375 12.5318 11.8443 13.0625 11.1875 13.0625H8.8125C8.15566 13.0625 7.625 12.5318 7.625 11.875V10.6875H0.5V15.4375C0.5 16.7475 1.56504 17.8125 2.875 17.8125H17.125C18.435 17.8125 19.5 16.7475 19.5 15.4375V10.6875Z" fill="white"/>
</svg>
