<svg width="18" height="18" viewBox="0 0 18 18" fill="none" xmlns="http://www.w3.org/2000/svg">
<path d="M8.16675 0.666656C12.3067 0.666656 15.6667 4.02666 15.6667 8.16666C15.6667 12.3067 12.3067 15.6667 8.16675 15.6667C4.02675 15.6667 0.666748 12.3067 0.666748 8.16666C0.666748 4.02666 4.02675 0.666656 8.16675 0.666656ZM8.16675 14C11.3892 14 14.0001 11.3892 14.0001 8.16666C14.0001 4.94332 11.3892 2.33332 8.16675 2.33332C4.94341 2.33332 2.33341 4.94332 2.33341 8.16666C2.33341 11.3892 4.94341 14 8.16675 14ZM15.2376 14.0592L17.5951 16.4158L16.4159 17.595L14.0592 15.2375L15.2376 14.0592Z" fill="black"/>
</svg>
